<svg width="1920" height="742" viewBox="0 0 1920 742" fill="none" xmlns="http://www.w3.org/2000/svg">
<g clip-path="url(#clip0_53_9930)">
<g clip-path="url(#clip1_53_9930)">
<rect width="1920" height="742" fill="#115E89"/>
<mask id="path-1-inside-1_53_9930" fill="white">
<path fill-rule="evenodd" clip-rule="evenodd" d="M990.213 358.836C983.703 358.836 978.425 364.113 978.425 370.623C978.425 370.72 978.426 370.816 978.429 370.913C978.463 372.338 977.813 373.781 976.484 374.297C971.993 376.043 967.108 377 962 377C939.909 377 922 359.091 922 337C922 314.909 939.909 297 962 297C984.091 297 1002 314.909 1002 337C1002 344.592 999.885 351.691 996.211 357.738C995.47 358.957 993.937 359.345 992.537 359.065C991.786 358.915 991.008 358.836 990.213 358.836Z"/>
</mask>
<path d="M992.537 359.065L993.714 353.182L992.537 359.065ZM978.429 370.913L984.427 370.768L984.427 370.768L978.429 370.913ZM976.484 374.297L978.657 379.89L976.484 374.297ZM984.425 370.623C984.425 367.427 987.016 364.836 990.213 364.836L990.213 352.836C980.389 352.836 972.425 360.799 972.425 370.623L984.425 370.623ZM984.427 370.768C984.426 370.72 984.425 370.672 984.425 370.623L972.425 370.623C972.425 370.768 972.427 370.913 972.43 371.057L984.427 370.768ZM974.31 368.705C970.501 370.185 966.353 371 962 371L962 383C967.863 383 973.484 381.9 978.657 379.89L974.31 368.705ZM962 371C943.222 371 928 355.778 928 337L916 337C916 362.405 936.595 383 962 383L962 371ZM928 337C928 318.222 943.222 303 962 303L962 291C936.595 291 916 311.595 916 337L928 337ZM962 303C980.778 303 996 318.222 996 337L1008 337C1008 311.595 987.405 291 962 291L962 303ZM996 337C996 343.463 994.202 349.488 991.083 354.623L1001.34 360.853C1005.57 353.893 1008 345.722 1008 337L996 337ZM990.213 364.836C990.611 364.836 990.994 364.875 991.361 364.948L993.714 353.182C992.577 352.954 991.406 352.836 990.213 352.836L990.213 364.836ZM991.083 354.623C991.563 353.833 992.252 353.427 992.745 353.265C993.192 353.117 993.521 353.143 993.714 353.182L991.361 364.948C994.257 365.528 998.837 364.972 1001.34 360.853L991.083 354.623ZM972.43 371.057C972.425 370.854 972.459 370.522 972.683 370.105C972.929 369.646 973.45 369.039 974.31 368.705L978.657 379.89C983.147 378.145 984.498 373.734 984.427 370.768L972.43 371.057Z" fill="#F0F0F0" mask="url(#path-1-inside-1_53_9930)"/>
<g filter="url(#filter0_d_53_9930)">
<path d="M995.622 370.658C995.622 373.332 993.455 375.499 990.781 375.499C988.107 375.499 985.939 373.332 985.939 370.658C985.939 367.984 988.107 365.816 990.781 365.816C993.455 365.816 995.622 367.984 995.622 370.658Z" stroke="#F0F0F0" stroke-width="3" shape-rendering="crispEdges"/>
</g>
<path d="M947.366 349.682L947.366 332.772C947.366 330.529 948.247 328.379 949.815 326.793C951.384 325.207 953.511 324.316 955.729 324.316C957.946 324.316 960.073 325.207 961.642 326.793C963.21 328.379 964.091 330.529 964.091 332.772L964.091 349.682M947.366 341.227L964.091 341.227M976.634 324.316L976.634 349.682" stroke="#F0F0F0" stroke-width="5" stroke-linecap="round" stroke-linejoin="round"/>
<g filter="url(#filter1_d_53_9930)">
<path fill-rule="evenodd" clip-rule="evenodd" d="M1018.15 406.752C1015.37 409.527 1015.37 414.025 1018.15 416.8C1019.63 418.269 1021.59 418.96 1023.52 418.873C1023.27 419.174 1023 419.467 1022.72 419.75C1017.59 424.859 1009.27 424.859 1004.15 419.75C999.019 414.641 999.019 406.359 1004.15 401.25C1009.27 396.141 1017.59 396.141 1022.72 401.25C1023.84 402.37 1024.72 403.643 1025.35 405.001C1022.89 404.229 1020.1 404.813 1018.15 406.752Z" fill="#F0F0F0"/>
</g>
<ellipse cx="912.3" cy="411.101" rx="13.3" ry="12.6482" fill="#F0F0F0"/>
<ellipse cx="962.478" cy="411.101" rx="12.6955" ry="12.6482" fill="#F0F0F0"/>
<path opacity="0.5" d="M486.5 984.5C486.5 723.269 698.269 511.5 959.5 511.5C1220.73 511.5 1432.5 723.269 1432.5 984.5C1432.5 1245.73 1220.73 1457.5 959.5 1457.5C698.269 1457.5 486.5 1245.73 486.5 984.5Z" stroke="url(#paint0_linear_53_9930)" stroke-width="25"/>
<circle opacity="0.5" cx="960" cy="-166" r="375.5" stroke="url(#paint1_linear_53_9930)" stroke-width="25"/>
</g>
<path d="M365 441.5C369.142 441.5 372.5 438.142 372.5 434C372.5 429.858 369.142 426.5 365 426.5V441.5ZM-43 37.5H411V22.5H-43V37.5ZM463.5 90V95.9151H478.5V90H463.5ZM411 148.415H174.796V163.415H411V148.415ZM174.796 277.007H253.188V262.007H174.796V277.007ZM253.188 353.63H53.935V368.63H253.188V353.63ZM53.935 441.5H365V426.5H53.935V441.5ZM10 397.565C10 421.83 29.6704 441.5 53.935 441.5V426.5C37.9546 426.5 25 413.545 25 397.565H10ZM53.935 353.63C29.6704 353.63 10 373.3 10 397.565H25C25 381.585 37.9546 368.63 53.935 368.63V353.63ZM291.5 315.318C291.5 336.477 274.347 353.63 253.188 353.63V368.63C282.632 368.63 306.5 344.762 306.5 315.318H291.5ZM253.188 277.007C274.347 277.007 291.5 294.159 291.5 315.318H306.5C306.5 285.875 282.632 262.007 253.188 262.007V277.007ZM110.5 212.711C110.5 248.22 139.286 277.007 174.796 277.007V262.007C147.57 262.007 125.5 239.936 125.5 212.711H110.5ZM174.796 148.415C139.286 148.415 110.5 177.201 110.5 212.711H125.5C125.5 185.486 147.57 163.415 174.796 163.415V148.415ZM463.5 95.9151C463.5 124.91 439.995 148.415 411 148.415V163.415C448.279 163.415 478.5 133.194 478.5 95.9151H463.5ZM411 37.5C439.995 37.5 463.5 61.005 463.5 90H478.5C478.5 52.7208 448.279 22.5 411 22.5V37.5Z" fill="url(#paint2_linear_53_9930)" fill-opacity="0.1"/>
<path d="M1939 404H1619.43C1588.26 404 1563 429.263 1563 460.427V460.427C1563 491.591 1588.26 516.854 1619.43 516.854H1843.69C1865.24 516.854 1882.7 534.32 1882.7 555.865V555.865C1882.7 577.41 1865.24 594.876 1843.69 594.876H1720.14C1704.36 594.876 1691.58 607.664 1691.58 623.438V623.438C1691.58 639.212 1704.36 652 1720.14 652H1816.68" stroke="url(#paint3_linear_53_9930)" stroke-opacity="0.15" stroke-width="15" stroke-linecap="round"/>
</g>
<defs>
<filter id="filter0_d_53_9930" x="979.439" y="356.316" width="22.6826" height="22.6836" filterUnits="userSpaceOnUse" color-interpolation-filters="sRGB">
<feFlood flood-opacity="0" result="BackgroundImageFix"/>
<feColorMatrix in="SourceAlpha" type="matrix" values="0 0 0 0 0 0 0 0 0 0 0 0 0 0 0 0 0 0 127 0" result="hardAlpha"/>
<feOffset dy="-3"/>
<feGaussianBlur stdDeviation="2.5"/>
<feComposite in2="hardAlpha" operator="out"/>
<feColorMatrix type="matrix" values="0 0 0 0 0 0 0 0 0 0 0 0 0 0 0 0 0 0 0.03 0"/>
<feBlend mode="normal" in2="BackgroundImageFix" result="effect1_dropShadow_53_9930"/>
<feBlend mode="normal" in="SourceGraphic" in2="effect1_dropShadow_53_9930" result="shape"/>
</filter>
<filter id="filter1_d_53_9930" x="995.301" y="389.418" width="35.0479" height="36.1641" filterUnits="userSpaceOnUse" color-interpolation-filters="sRGB">
<feFlood flood-opacity="0" result="BackgroundImageFix"/>
<feColorMatrix in="SourceAlpha" type="matrix" values="0 0 0 0 0 0 0 0 0 0 0 0 0 0 0 0 0 0 127 0" result="hardAlpha"/>
<feOffset dy="-3"/>
<feGaussianBlur stdDeviation="2.5"/>
<feComposite in2="hardAlpha" operator="out"/>
<feColorMatrix type="matrix" values="0 0 0 0 0 0 0 0 0 0 0 0 0 0 0 0 0 0 0.03 0"/>
<feBlend mode="normal" in2="BackgroundImageFix" result="effect1_dropShadow_53_9930"/>
<feBlend mode="normal" in="SourceGraphic" in2="effect1_dropShadow_53_9930" result="shape"/>
</filter>
<linearGradient id="paint0_linear_53_9930" x1="959.5" y1="1470" x2="959.5" y2="499" gradientUnits="userSpaceOnUse">
<stop stop-color="#D5DAA0" stop-opacity="0.65"/>
<stop offset="0.223958" stop-color="#F5E3A4" stop-opacity="0.44"/>
<stop offset="1" stop-color="white" stop-opacity="0"/>
</linearGradient>
<linearGradient id="paint1_linear_53_9930" x1="960" y1="-554" x2="960" y2="222" gradientUnits="userSpaceOnUse">
<stop stop-color="#D5DAA0" stop-opacity="0.65"/>
<stop offset="0.223958" stop-color="#F5E3A4" stop-opacity="0.44"/>
<stop offset="1" stop-color="white" stop-opacity="0"/>
</linearGradient>
<linearGradient id="paint2_linear_53_9930" x1="214" y1="30" x2="214" y2="434" gradientUnits="userSpaceOnUse">
<stop stop-color="#B8B8B8" stop-opacity="0.15"/>
<stop offset="0.485" stop-color="#B8B8B8"/>
<stop offset="1" stop-color="white" stop-opacity="0"/>
</linearGradient>
<linearGradient id="paint3_linear_53_9930" x1="1751" y1="404" x2="1751" y2="652" gradientUnits="userSpaceOnUse">
<stop stop-color="white" stop-opacity="0.13"/>
<stop offset="0.46" stop-color="#F7BEAC" stop-opacity="0.54"/>
<stop offset="1" stop-color="white" stop-opacity="0"/>
</linearGradient>
<clipPath id="clip0_53_9930">
<rect width="1920" height="742" fill="white"/>
</clipPath>
<clipPath id="clip1_53_9930">
<rect width="1920" height="742" fill="white"/>
</clipPath>
</defs>
</svg>
