<svg width="104" height="113" viewBox="0 0 104 113" fill="none" xmlns="http://www.w3.org/2000/svg">
<circle cx="48" cy="48" r="46" stroke="#7D8184" stroke-width="4"/>
<path d="M59.6608 31.7835C59.6608 39.9472 53.039 46.567 44.8685 46.567C36.6979 46.567 30.0762 39.9472 30.0762 31.7835C30.0762 23.6198 36.6979 17 44.8685 17C53.039 17 59.6608 23.6198 59.6608 31.7835Z" stroke="#7D8184" stroke-width="4"/>
<path d="M62.1129 48.1178C64.9498 46.3918 67.2109 43.8637 68.6102 40.8533C70.0096 37.8429 70.4844 34.4853 69.9745 31.2052C69.4647 27.9251 67.9931 24.8697 65.7459 22.4255" stroke="#7D8184" stroke-width="4" stroke-linecap="round"/>
<mask id="path-4-outside-1_36_18329" maskUnits="userSpaceOnUse" x="18" y="51.1958" width="53" height="27" fill="black">
<rect fill="white" x="18" y="51.1958" width="53" height="27"/>
<path d="M68.1428 77.5979C69.075 77.5979 69.8366 76.8411 69.7747 75.9109C69.3674 69.7899 66.7537 64.0005 62.3868 59.6359C57.6205 54.8721 51.156 52.1958 44.4154 52.1958C37.6748 52.1958 31.2103 54.8721 26.444 59.6359C22.0771 64.0005 19.4634 69.7899 19.0561 75.9109C18.9942 76.8411 19.7557 77.5979 20.688 77.5979V77.5979C21.6202 77.5979 22.3692 76.841 22.4406 75.9115C22.8418 70.6862 25.0975 65.7535 28.8311 62.0218C32.9643 57.8908 38.5702 55.57 44.4154 55.57C50.2606 55.57 55.8664 57.8908 59.9996 62.0218C63.7333 65.7535 65.989 70.6862 66.3902 75.9115C66.4616 76.841 67.2106 77.5979 68.1428 77.5979V77.5979Z"/>
</mask>
<path d="M68.1428 77.5979C69.075 77.5979 69.8366 76.8411 69.7747 75.9109C69.3674 69.7899 66.7537 64.0005 62.3868 59.6359C57.6205 54.8721 51.156 52.1958 44.4154 52.1958C37.6748 52.1958 31.2103 54.8721 26.444 59.6359C22.0771 64.0005 19.4634 69.7899 19.0561 75.9109C18.9942 76.8411 19.7557 77.5979 20.688 77.5979V77.5979C21.6202 77.5979 22.3692 76.841 22.4406 75.9115C22.8418 70.6862 25.0975 65.7535 28.8311 62.0218C32.9643 57.8908 38.5702 55.57 44.4154 55.57C50.2606 55.57 55.8664 57.8908 59.9996 62.0218C63.7333 65.7535 65.989 70.6862 66.3902 75.9115C66.4616 76.841 67.2106 77.5979 68.1428 77.5979V77.5979Z" fill="#7D8184"/>
<path d="M68.1428 77.5979C69.075 77.5979 69.8366 76.8411 69.7747 75.9109C69.3674 69.7899 66.7537 64.0005 62.3868 59.6359C57.6205 54.8721 51.156 52.1958 44.4154 52.1958C37.6748 52.1958 31.2103 54.8721 26.444 59.6359C22.0771 64.0005 19.4634 69.7899 19.0561 75.9109C18.9942 76.8411 19.7557 77.5979 20.688 77.5979V77.5979C21.6202 77.5979 22.3692 76.841 22.4406 75.9115C22.8418 70.6862 25.0975 65.7535 28.8311 62.0218C32.9643 57.8908 38.5702 55.57 44.4154 55.57C50.2606 55.57 55.8664 57.8908 59.9996 62.0218C63.7333 65.7535 65.989 70.6862 66.3902 75.9115C66.4616 76.841 67.2106 77.5979 68.1428 77.5979V77.5979Z" stroke="#7D8184" mask="url(#path-4-outside-1_36_18329)"/>
<path d="M67.5625 55.3711C71.6471 58.5464 76.6394 65.3505 78.001 75.7835" stroke="#7D8184" stroke-width="4" stroke-linecap="round"/>
</svg>
