<svg width="96" height="96" viewBox="0 0 96 96" fill="none" xmlns="http://www.w3.org/2000/svg">
<path d="M25.5945 53.4265L25.5946 53.4263L56.4159 22.5999C56.4161 22.5998 56.4162 22.5997 56.4163 22.5996L56.4164 22.5995L56.6993 22.8823C56.978 22.6026 57.3091 22.3807 57.6738 22.2293C58.0384 22.0779 58.4294 22 58.8242 22C59.2191 22 59.61 22.0779 59.9746 22.2293C60.3393 22.3807 60.6705 22.6026 60.9492 22.8823L25.5945 53.4265ZM25.5945 53.4265C24.9577 54.0639 24.6 54.928 24.6 55.8289V67.0003C24.6 67.902 24.9582 68.7667 25.5958 69.4043C26.2334 70.0418 27.0982 70.4 27.9999 70.4H69.999C70.3702 70.4 70.7263 70.2525 70.9889 69.99C71.2514 69.7275 71.3989 69.3714 71.3989 69.0001C71.3989 68.6288 71.2514 68.2727 70.9889 68.0102C70.7263 67.7477 70.3702 67.6002 69.999 67.6002H43.3803L72.4042 38.5786L72.1497 38.324L72.4043 38.5786C73.0418 37.941 73.4 37.0763 73.4 36.1747C73.4 35.2731 73.0418 34.4084 72.4043 33.7708L72.1559 34.0191L72.4042 33.7708L61.2325 22.5999L25.5945 53.4265ZM63.9991 43.022L51.9801 31.004L58.4046 24.58L58.4047 24.5798C58.4604 24.5241 58.5266 24.4798 58.5995 24.4496C58.6723 24.4194 58.7504 24.4039 58.8292 24.4039C58.9081 24.4039 58.9861 24.4194 59.059 24.4496C59.1318 24.4798 59.198 24.5241 59.2537 24.5798L59.2538 24.58L70.4233 35.751L63.9991 43.022ZM63.9991 43.022L70.4233 36.5983L63.9991 43.022ZM70.5985 36.1747C70.5985 36.016 70.5356 35.8638 70.4236 35.7513L70.5985 36.1747ZM70.5985 36.1747C70.5985 36.3334 70.5356 36.4856 70.4236 36.598L70.5985 36.1747ZM62.0209 45.0025L39.419 67.6002H27.9999C27.8408 67.6002 27.6882 67.537 27.5757 67.4245C27.4632 67.312 27.4 67.1594 27.4 67.0003V55.8293C27.4003 55.6708 27.4634 55.5189 27.5754 55.4067L49.9994 32.9844L62.0209 45.0025Z" fill="#7D8184" stroke="#7D8184" stroke-width="0.8"/>
<circle cx="48" cy="48" r="46" stroke="#7D8184" stroke-width="4"/>
</svg>
