<svg width="120" height="120" viewBox="0 0 120 120" fill="none" xmlns="http://www.w3.org/2000/svg">
<g clip-path="url(#clip0_58_9985)">
<path d="M60 117.5C91.7564 117.5 117.5 91.7564 117.5 60C117.5 28.2436 91.7564 2.5 60 2.5C28.2436 2.5 2.5 28.2436 2.5 60C2.5 91.7564 28.2436 117.5 60 117.5Z" stroke="url(#paint0_linear_58_9985)" stroke-width="5"/>
<path d="M11.5 87C19.1161 80.7279 29.9437 72.0472 36.789 66.7129C38.033 65.7435 39.811 65.9168 40.8559 67.098L48.5075 75.7476C49.6072 76.9907 51.5072 77.1048 52.7476 76.0021L86.5 46" stroke="url(#paint1_linear_58_9985)" stroke-width="6.5" stroke-linecap="round"/>
<path d="M78.8322 40.8435L92.6219 38.0856C93.3009 37.9498 93.9091 38.5286 93.8071 39.2135L91.662 53.616C91.541 54.4283 90.5466 54.7565 89.9658 54.1758L78.3212 42.5312C77.7565 41.9664 78.049 41.0002 78.8322 40.8435Z" fill="url(#paint2_linear_58_9985)"/>
</g>
<defs>
<linearGradient id="paint0_linear_58_9985" x1="120" y1="63.7133" x2="2.33236e-06" y2="63.7133" gradientUnits="userSpaceOnUse">
<stop stop-color="#3AA9E8"/>
<stop offset="1" stop-color="#1ECBD6"/>
</linearGradient>
<linearGradient id="paint1_linear_58_9985" x1="86.5" y1="67.7687" x2="11.5" y2="67.7687" gradientUnits="userSpaceOnUse">
<stop stop-color="#3AA9E8"/>
<stop offset="1" stop-color="#1ECBD6"/>
</linearGradient>
<linearGradient id="paint2_linear_58_9985" x1="96.1586" y1="50.7905" x2="81.789" y2="36.4209" gradientUnits="userSpaceOnUse">
<stop stop-color="#3AA9E8"/>
<stop offset="1" stop-color="#1ECBD6"/>
</linearGradient>
<clipPath id="clip0_58_9985">
<rect width="120" height="120" fill="white"/>
</clipPath>
</defs>
</svg>
