<svg width="120" height="120" viewBox="0 0 120 120" fill="none" xmlns="http://www.w3.org/2000/svg">
<circle cx="60" cy="60" r="57.5" stroke="url(#paint0_linear_581_22552)" stroke-width="5"/>
<g clip-path="url(#clip0_581_22552)">
<path d="M46.3996 91.2006C49.0506 91.2006 51.1996 89.0516 51.1996 86.4006C51.1996 83.7496 49.0506 81.6006 46.3996 81.6006C43.7486 81.6006 41.5996 83.7496 41.5996 86.4006C41.5996 89.0516 43.7486 91.2006 46.3996 91.2006Z" fill="#60B2E1"/>
<path d="M81.5998 91.2006C84.2508 91.2006 86.3998 89.0516 86.3998 86.4006C86.3998 83.7496 84.2508 81.6006 81.5998 81.6006C78.9488 81.6006 76.7998 83.7496 76.7998 86.4006C76.7998 89.0516 78.9488 91.2006 81.5998 91.2006Z" fill="#60B2E1"/>
<path d="M23.6123 33.1064H31.7033C33.1587 33.1064 34.4041 34.151 34.6575 35.5842L41.7368 75.6261C41.9901 77.0593 43.2356 78.1038 44.6909 78.1038H84.6034" stroke="#60B2E1" stroke-width="5" stroke-linecap="round" stroke-linejoin="round"/>
<path d="M42.1752 63.9866H83.5165C83.8231 63.9868 84.1204 63.881 84.3576 63.687C84.5948 63.493 84.7573 63.223 84.8175 62.9229L89.5907 39.1008C89.6293 38.9087 89.6246 38.7104 89.577 38.5204C89.5295 38.3303 89.4402 38.1532 89.3158 38.0017C89.1913 37.8502 89.0347 37.7282 88.8572 37.6445C88.6798 37.5608 88.486 37.5174 88.2897 37.5176H36.8716" stroke="#60B2E1" stroke-width="5" stroke-linecap="round" stroke-linejoin="round"/>
</g>
<defs>
<linearGradient id="paint0_linear_581_22552" x1="120" y1="63.7133" x2="-8.9636e-08" y2="63.7133" gradientUnits="userSpaceOnUse">
<stop stop-color="#3AA9E8"/>
<stop offset="1" stop-color="#1ECBD6"/>
</linearGradient>
<clipPath id="clip0_581_22552">
<rect width="72" height="60.8" fill="white" transform="translate(20.7998 30.4004)"/>
</clipPath>
</defs>
</svg>
