<?xml version="1.0" encoding="utf-8"?>
<!-- Generator: Adobe Illustrator 24.3.0, SVG Export Plug-In . SVG Version: 6.00 Build 0)  -->
<svg version="1.1" id="圖層_1" xmlns="http://www.w3.org/2000/svg" xmlns:xlink="http://www.w3.org/1999/xlink" x="0px" y="0px"
	 viewBox="0 0 184.3 184.3" style="enable-background:new 0 0 184.3 184.3;" xml:space="preserve">
<style type="text/css">
	.st0{fill:#FFFFFF;}
	.st1{fill:#FF8A61;}
	.st2{fill:none;stroke:#FFFFFF;stroke-width:4.5;stroke-linecap:round;stroke-linejoin:round;}
	.st3{fill:none;stroke:#FFFFFF;stroke-width:3;stroke-linecap:round;stroke-linejoin:round;}
</style>
<g>
	<path class="st0" d="M-827.3-175H-841v-3.5h31.4v3.5h-13.7v38h-3.9V-175z"/>
	<path class="st0" d="M-798.4-155.6h18.6v3.5h-18.6V-155.6z"/>
	<path class="st0" d="M-761.1-173.1c-0.5-0.5-0.7-1.1-0.7-1.8c0-1.4,1.1-2.5,2.5-2.5c0.7,0,1.3,0.3,1.8,0.7c0.5,0.5,0.7,1.1,0.7,1.8
		c0,1.4-1.1,2.5-2.5,2.5c0,0,0,0-0.1,0C-760-172.4-760.6-172.7-761.1-173.1z M-761.2-167h3.8v29.9h-3.8V-167z"/>
	<path class="st0" d="M-738.8-167h3.8v5.1h0.1c0.8-1.7,2.1-3.1,3.6-4.1c1.8-1.1,3.9-1.7,6.1-1.6c3.3,0,5.9,1,7.8,3s2.8,4.8,2.8,8.3
		v19.2h-3.8v-18.5c0-2.8-0.7-4.9-2-6.4c-1.3-1.5-3.3-2.2-5.8-2.2c-1.6,0-3.2,0.4-4.6,1.2c-1.3,0.8-2.3,1.9-3,3.2
		c-0.8,1.5-1.1,3.2-1.1,4.9v17.8h-3.8V-167z"/>
	<path class="st0" d="M-695-163.8h-4.2v-3.2h4.2v-4.3c-0.1-1.5,0.2-3.1,0.9-4.4c0.5-1.1,1.4-2,2.6-2.6c1.3-0.6,2.8-0.9,4.2-0.8
		c0.5,0,1,0,1.5,0.1c0.5,0.1,0.9,0.1,1.2,0.2v3.1c-0.3-0.1-0.7-0.1-1-0.1c-0.4,0-0.8,0-1.1,0c-1.2-0.1-2.4,0.3-3.3,1.1
		c-0.9,1-1.3,2.3-1.2,3.6v4.2h6.5v3.2h-6.4v26.7h-3.8L-695-163.8z"/>
	<path class="st0" d="M-665.8-138.4c-2.1-1.3-3.8-3.2-4.8-5.4c-1.2-2.6-1.8-5.4-1.7-8.2v-0.1c-0.1-2.8,0.5-5.6,1.7-8.2
		c1-2.2,2.7-4.1,4.8-5.4c4.4-2.5,9.8-2.5,14.3,0c2.1,1.3,3.7,3.1,4.8,5.3c1.2,2.6,1.8,5.4,1.7,8.2v0.1c0.1,2.8-0.5,5.7-1.7,8.2
		c-1.1,2.2-2.7,4.1-4.8,5.4c-2.2,1.3-4.6,2-7.1,1.9C-661.2-136.5-663.6-137.1-665.8-138.4z M-653.5-141.3c1.5-1,2.7-2.5,3.4-4.2
		c0.8-2.1,1.3-4.3,1.2-6.5v-0.1c0.1-2.2-0.4-4.4-1.2-6.5c-1.4-3.5-4.8-5.7-8.6-5.6c-1.8,0-3.6,0.5-5.1,1.4c-1.5,1-2.7,2.5-3.4,4.1
		c-0.9,2-1.3,4.3-1.2,6.5v0.1c-0.1,2.2,0.4,4.4,1.2,6.5c0.7,1.7,1.9,3.1,3.4,4.2C-660.6-139.4-656.7-139.4-653.5-141.3L-653.5-141.3
		z"/>
	<path class="st0" d="M-623.7-138.4c-2-1.4-3.5-3.2-4.4-5.4c-1.1-2.6-1.7-5.4-1.6-8.2l0,0c-0.1-2.8,0.5-5.6,1.6-8.2
		c1-2.2,2.5-4,4.4-5.4c3.3-2.1,7.3-2.5,11-1.1c1.3,0.5,2.5,1.4,3.5,2.4c1,1,1.8,2.3,2.4,3.6h0.1v-17.9h3.8v41.5h-3.8v-6.2h-0.1
		c-0.5,1.3-1.3,2.6-2.3,3.6c-1,1-2.2,1.8-3.5,2.4c-1.4,0.6-2.9,0.8-4.4,0.8C-619.4-136.5-621.7-137.1-623.7-138.4z M-611.3-141.4
		c1.5-1.1,2.7-2.6,3.4-4.3c0.8-2,1.3-4.2,1.2-6.3l0,0c0-2.2-0.4-4.3-1.2-6.3c-0.7-1.7-1.9-3.2-3.4-4.3c-1.5-1-3.2-1.6-5-1.5
		c-1.8,0-3.5,0.5-5,1.5c-1.5,1.1-2.6,2.5-3.3,4.2c-0.8,2-1.2,4.2-1.2,6.4l0,0c0,2.2,0.3,4.4,1.2,6.4c0.7,1.7,1.8,3.2,3.3,4.2
		C-618.3-139.5-614.4-139.5-611.3-141.4L-611.3-141.4z"/>
	<path class="st0" d="M-579.5-138.4c-2.1-1.3-3.7-3.1-4.7-5.4c-1.1-2.6-1.7-5.4-1.6-8.2l0,0c-0.1-2.8,0.5-5.6,1.6-8.2
		c3.2-6.5,11.1-9.2,17.6-6c0.3,0.2,0.6,0.3,0.9,0.5c2,1.3,3.6,3.1,4.5,5.2c1.1,2.5,1.7,5.2,1.6,7.9v1.5H-584v-3h22.6l-1.9,2.7v-1.4
		c0.1-2.1-0.3-4.2-1.2-6.2c-0.7-1.6-1.8-2.9-3.3-3.8c-4.2-2.7-9.8-1.4-12.5,2.8c-0.2,0.3-0.4,0.7-0.6,1.1c-0.9,1.9-1.3,4-1.2,6.1
		v1.4c-0.1,2.1,0.4,4.3,1.2,6.2c0.7,1.6,1.9,3,3.4,3.9c1.6,0.9,3.4,1.4,5.2,1.4c1.3,0,2.7-0.2,3.9-0.7c1.1-0.4,2.1-1.1,2.9-1.9
		c0.8-0.8,1.3-1.8,1.6-2.9l0.1-0.3h3.7l-0.1,0.3c-0.3,1.3-0.8,2.5-1.5,3.5c-0.7,1.1-1.6,2-2.7,2.8c-1.1,0.8-2.4,1.4-3.7,1.8
		c-1.5,0.4-3,0.7-4.5,0.6C-574.8-136.4-577.3-137.1-579.5-138.4z"/>
	<path class="st0" d="M-538.3-137.6c-1.6-0.7-3-1.8-4.1-3.1c-1-1.4-1.6-3-1.8-4.7v-0.3h3.8l0.1,0.3c0.3,1.7,1.2,3.2,2.5,4.2
		c1.6,1.1,3.5,1.6,5.4,1.5c1.3,0,2.7-0.2,4-0.6c1-0.4,1.9-1,2.6-1.8c0.6-0.8,0.9-1.8,0.9-2.7l0,0c0.1-1.2-0.4-2.3-1.2-3.1
		c-1.2-1-2.7-1.6-4.2-1.9l-4.5-1.1c-1.6-0.4-3.2-1-4.7-1.8c-1.1-0.6-2.1-1.5-2.8-2.6c-0.6-1.1-0.9-2.4-0.9-3.6l0,0
		c0-1.6,0.5-3.1,1.4-4.4c1-1.3,2.3-2.4,3.8-3c1.7-0.8,3.6-1.1,5.5-1.1c1.9,0,3.8,0.3,5.6,1.1c1.5,0.7,2.8,1.8,3.8,3.1
		c0.9,1.4,1.5,2.9,1.6,4.6v0.3h-3.6v-0.2c-0.2-1.6-1-3.1-2.3-4.2c-1.4-1.1-3.2-1.7-5.1-1.6c-1.2,0-2.4,0.2-3.6,0.6
		c-0.9,0.4-1.8,1-2.4,1.8c-0.5,0.8-0.8,1.7-0.8,2.7l0,0c0,0.7,0.2,1.5,0.6,2.1c0.4,0.7,1.1,1.3,1.8,1.6c1,0.5,2.1,0.9,3.2,1.2
		l4.5,1.1c3,0.7,5.1,1.7,6.4,2.9c1.3,1.3,2,3.2,1.9,5l0,0c0,1.7-0.5,3.3-1.6,4.6c-1,1.4-2.4,2.4-4,3.1c-1.8,0.8-3.8,1.1-5.8,1.1
		C-534.4-136.4-536.5-136.8-538.3-137.6z"/>
	<path class="st0" d="M-503.9-173.1c-0.5-0.5-0.7-1.1-0.7-1.8c0-1.4,1.1-2.5,2.5-2.5c1.4,0,2.5,1.1,2.5,2.5c0,0.7-0.3,1.3-0.7,1.8
		C-501.3-172.2-502.9-172.2-503.9-173.1z M-504-167h3.8v29.9h-3.8V-167z"/>
	<path class="st0" d="M-475.3-127.4c-1.6-0.6-3.1-1.5-4.2-2.8c-1-1.1-1.8-2.4-2.1-3.9l-0.1-0.2h3.8l0.1,0.3c0.6,1.3,1.7,2.4,3,3
		c1.8,0.9,3.7,1.3,5.7,1.2c2.9,0,5.1-0.8,6.7-2.2c1.6-1.6,2.5-3.8,2.4-6.1v-5.3h-0.1c-0.5,1.3-1.3,2.5-2.3,3.5c-1,1-2.2,1.8-3.5,2.4
		c-1.4,0.6-2.9,0.9-4.4,0.9c-2.4,0-4.7-0.6-6.6-1.9c-2-1.3-3.5-3.2-4.5-5.4c-1.1-2.6-1.7-5.3-1.6-8.1l0,0c-0.1-2.8,0.5-5.6,1.6-8.1
		c1-2.2,2.5-4,4.5-5.4c2-1.3,4.3-2,6.6-2c1.5,0,3,0.3,4.4,0.9c1.3,0.6,2.5,1.4,3.5,2.4c1,1,1.7,2.2,2.3,3.5h0.1v-6.4h3.8v29.2
		c0.1,2.1-0.5,4.2-1.5,6c-1.1,1.7-2.6,3.1-4.4,4c-2.1,1-4.5,1.5-6.9,1.4C-471.3-126.4-473.3-126.7-475.3-127.4z M-464.6-141.6
		c1.5-1.1,2.7-2.5,3.4-4.2c0.8-2,1.3-4.1,1.2-6.3l0,0c0-2.2-0.4-4.3-1.2-6.4c-0.7-1.7-1.9-3.1-3.3-4.2c-1.5-1-3.2-1.5-5-1.5
		c-1.8,0-3.6,0.5-5,1.5c-1.5,1.1-2.6,2.5-3.3,4.2c-0.8,2-1.2,4.2-1.2,6.3l0,0c0,2.2,0.4,4.3,1.2,6.4c0.7,1.7,1.9,3.1,3.3,4.2
		c1.5,1,3.2,1.5,5,1.5C-467.9-140.1-466.1-140.6-464.6-141.6z"/>
	<path class="st0" d="M-438-167h3.8v5.1h0.1c0.8-1.7,2.1-3.1,3.6-4.1c1.8-1.1,3.9-1.7,6.1-1.6c3.3,0,5.9,1,7.8,3s2.8,4.8,2.8,8.3
		v19.2h-3.8v-18.5c0-2.8-0.7-4.9-2-6.4s-3.3-2.2-5.9-2.2c-1.6,0-3.2,0.4-4.6,1.2c-1.3,0.8-2.3,1.9-3,3.2c-0.8,1.5-1.1,3.2-1.1,4.9
		v17.8h-3.8V-167z"/>
</g>
<g>
	<circle class="st1" cx="92.1" cy="92.1" r="85.9"/>
	<path class="st2" d="M52.8,75.5V52.8c0-4.1,3.1-18.5,16.5-28c0,0,5.2-18.5,18.5-2.1c13.4-1,36.3,9.3,34.1,19.6
		c6.2,4.1,8.2,10.3,4.1,11.4"/>
	<path class="st2" d="M104.5,98.3c-2.1,25.9,43.5,1,43.5,37.3c0,12.4,5.2,18.5,12.4,18.5c8.2,0,13.4-3.1,13.4-12.4"/>
	<path class="st2" d="M66.2,153.1c0,0-2.1-14.4,7.2-26c12.4-16.5,31.1-14.4,31.1-29c0-7.2-4.1-10.3-4.1-10.3l-4.1-4.1
		c0,0-6.2-4.1,1-10.3c5.2-3.1,6.2,4.1,10.3,5.2c2.1,1,11.4-10.3,11.4-10.3"/>
	<path class="st3" d="M80.6,155.2c0-16.5,14.4-30.1,31.1-31.1c10.3,0,20.6,4.1,24.9,9.3"/>
	<path class="st3" d="M66.2,50.7c-3.1,21.7,17.5,24.9,17.5,24.9"/>
	<path class="st3" d="M78.6,48.7c0,0-3.1,11.4,9.3,16.5"/>
	<path class="st2" d="M62.1,89c0,0-9.3,1-9.3,9.3v39.3c0,6.2,0,16.5-9.3,16.5"/>
	<circle class="st0" cx="95.2" cy="42.5" r="4.1"/>
	<path class="st3" d="M97.3,156.2c0-10.8,8.7-19.6,19.6-19.6c0,0,0,0,0,0c10.5-0.4,19.2,7.8,19.6,18.3c0,0.4,0,0.8,0,1.3"/>
</g>
</svg>
